/* XPM */
static char * black_gate_xpm[] = {
"64 64 58 1",
" 	c None",
".	c #422A12",
"+	c #3D240C",
"@	c #392008",
"#	c #331900",
"$	c #351B02",
"%	c #341A02",
"&	c #462E17",
"*	c #452D16",
"=	c #412811",
"-	c #381E06",
";	c #3B220A",
">	c #4A331D",
",	c #381F07",
"'	c #3F270F",
")	c #371D05",
"!	c #3E250D",
"~	c #341A01",
"{	c #442C15",
"]	c #513B26",
"^	c #473019",
"/	c #462F18",
"(	c #49321C",
"_	c #48301A",
":	c #3D250D",
"<	c #4E3722",
"[	c #412911",
"}	c #503924",
"|	c #402710",
"1	c #4F3823",
"2	c #412912",
"3	c #513B25",
"4	c #402811",
"5	c #3E250E",
"6	c #371D04",
"7	c #392007",
"8	c #381F06",
"9	c #422A13",
"0	c #452D17",
"a	c #3A2109",
"b	c #604B38",
"c	c #3A2108",
"d	c #503A25",
"e	c #756453",
"f	c #5A4531",
"g	c #533D28",
"h	c #786656",
"i	c #513A25",
"j	c #523C27",
"k	c #503A24",
"l	c #7F6E5F",
"m	c #796757",
"n	c #4E3822",
"o	c #361D04",
"p	c #391F07",
"q	c #3A2008",
"r	c #4B341D",
"s	c #4C351F",
"                                                                ",
"                                                                ",
"                                                                ",
"                                                                ",
"                                                                ",
"                                                                ",
"                                                                ",
"                                                                ",
"                                                                ",
"                                                                ",
"                                                                ",
"                                                                ",
"                               .+                               ",
"                               @#                               ",
"                              #@##                              ",
"                           ###$@#@###                           ",
"   %##                     #  #@##  #                     ##%   ",
"   ####                       #@##                       ####   ",
"  #####                       #@##    &                  #####  ",
"   ####                 ##    #@##    ##                 ####   ",
"    ##            *   =##-##  #@##  #####    ;            ##    ",
"    ##     #      #     ## >  #@##  , #'     #      #     ##    ",
"    ##   #)# #  # #!#   ~#    #@##    ##   #{# #  # #%#   ##    ",
"    #]   # # #  #^# #   #~    #@##    ##   # # #  #/# #   ##    ",
"    ]]    ##(     ##    ##    #@##    ~#    ##_     ##    +#    ",
"    ]:     #<    [#     ##    #@##    ##     #}    |#     #=    ",
"    ########################'##@############################    ",
"    ##     #1    2#     ##    #@##    ##     #3    |#     ##    ",
"    ##     #<    4#     ##    #@##    ##     #}    '#     ##    ",
"    ##     #<    '#     ##    #@##    ##     #}    5#     ##    ",
"    ##     #<    5#     ##    #@##    ##     #}    +#     ##    ",
"    ##     #<    ;#     ##    #@#~    ##     #}    ;#     ##    ",
"    ##     #<    6#     ##    #@##    ##     #}    7#     ##    ",
"    ##     #<    ##     ##    #@##    ##     #}    ##     ##    ",
"    ##     #<    ,#     ##    #@##    ##     #}    8#     ~]    ",
"    ##     #<    !#     #]    #@##    ##     #}    +#     ##    ",
"    ##     #<    9#     ##    #@##    #~     #}    2#     ##    ",
"    ##     #<    /#     ##    #@##    ##     #}    0#     ##    ",
"    #####~#############]#######@#########~#############]####    ",
"    ######9#a####a##b##########@##########1###a####c]#######    ",
"    ##     _<    d#     ##    #@##    ##     #}    e]     ##    ",
"    ##     #f    g#     ##    #@##    ##     #}    h#     ##    ",
"    ##     #<    g#     ##    #@##    ##     #}    i#     ##    ",
"    ##     #<    j#     ##    #@##    ##     #}    k#     ##    ",
"    ##     #<    l#     ##    #@##    ##     #m    n#     ##    ",
"    ##     #<    l#     ##    #@##    ##     #m     #     ##    ",
"    ##     #<     #     ##    #@##    ##     #}     #     ##    ",
"    ##     #<     #     ##    #@##    ##     #}     #     ##    ",
"    ##     oe     #     ##    #@##    ##     #}     #     ##    ",
"    ##     #<     #     ##    #@##    ##     #}     #     ##    ",
"    ####g###~#########~########@########go####~#######~#####    ",
"    ###]###############~#######@#######]###############a####    ",
"    ##     #<     #     a#    #@##    ##     #}     #     ##    ",
"    #]     #<     #     #>    #@##    #p     #}     #     ##    ",
"    -]     #<     #     ##    #@##    :#     #}     #     ~#    ",
"    i#     #<     #     ##    #@##    ##     #}     #     #~    ",
"    ##     #<     #     ##    #@##    ##     #}     #     ##    ",
"    ##     #<     #     ##    #@##    ##     #}     #     ##    ",
"    ##     #<     #     ##    #@##    ##     #}     #     ##    ",
"    ##     #<     #     ##    #@##    ##     #}     #     ##    ",
"    ##     #<     #     ##    #q##    ##     #}     #     ##    ",
"    ##     #<     #     ##    #q##    ##     #}     #     ##    ",
"    ##     #r     #     ##    #q##    ##     #s     #     ##    ",
"    ######################]####q####~#####################}#    "};
