/* XPM */
static char * openning_gate_07_xpm[] = {
"64 64 39 1",
" 	c None",
".	c #131313",
"+	c #2F302F",
"@	c #474847",
"#	c #323332",
"$	c #525453",
"%	c #232424",
"&	c #99932C",
"*	c #515119",
"=	c #FFF45B",
"-	c #4B4D4C",
";	c #2B2C2B",
">	c #E8C138",
",	c #F5E243",
"'	c #FFDB53",
")	c #191919",
"!	c #272827",
"~	c #B37623",
"{	c #0C0C0C",
"]	c #DB9432",
"^	c #886D46",
"/	c #575958",
"(	c #363837",
"_	c #1F2020",
":	c #434443",
"<	c #6A6C6B",
"[	c #474948",
"}	c #565857",
"|	c #3F4140",
"1	c #5A5B5B",
"2	c #272828",
"3	c #4E504F",
"4	c #3F403F",
"5	c #666866",
"6	c #4F5150",
"7	c #676968",
"8	c #646665",
"9	c #3C3D3C",
"0	c #000000",
"                                                                ",
"                                                                ",
"                                                                ",
"                                                                ",
"                                                                ",
"                                                                ",
"                                                                ",
"                                               .                ",
"                                               +                ",
"           .                                   @                ",
"           #                                  $#                ",
"           %&                               *=-;                ",
"           %>                               ,'$@                ",
"          )!~{                              ]^/#                ",
"          (_:<                             $/#$[                ",
"           %:                               };$+                ",
"           %:                               /)/#                ",
"           %:                               /#$@                ",
"           %|                               1)$+                ",
"           2:                               1$$;                ",
"           %|                               }<$3                ",
"           )4                               }$(;                ",
"           ):                               -#$;                ",
"           ))                               /5$2                ",
"           %.                               $/$;                ",
"           %.                               /$$2                ",
"           %.                               $<-:                ",
"           2.                               1/$#                ",
"           %.                               /<62                ",
"           %{                               /<6:                ",
"           2.                               1/$;                ",
"           %.                               /<6:                ",
"           %.                               /<-2                ",
"           %)                               //$;                ",
"           _.                               }<6:                ",
"           %.                               /$6;                ",
"           %.                               1}$;                ",
"           %.                               /7-;                ",
"           %.                               /$6;                ",
"           ))                               $##-                ",
"           ).                               $<;:                ",
"           ).                               /$$;                ",
"           ).                               $632                ",
"           _.                               $<-:                ",
"           %.                               //$+                ",
"           %.                               $7-2                ",
"           %.                               }7-:                ",
"           %.                               /}6;                ",
"           %.                               $7-:                ",
"           %.                               $7-2                ",
"           %.                               }}6;                ",
"           %.                               $7-:                ",
"           %)                               $6-;                ",
"           %)                               /36;                ",
"           %.                               ([-%                ",
"           ..                               $6#%                ",
"           ){                               $3([                ",
"           ).                               $8-%                ",
"           ).                               $66%                ",
"           %)                               3--_                ",
"           _                                  -9                ",
"           %                                  $2                ",
"           0                                   %                ",
"                                               ;                "};
