/* XPM */
static char * openning_gate_04_xpm[] = {
"64 64 53 1",
" 	c None",
".	c #1F201F",
"+	c #0F1010",
"@	c #111111",
"#	c #3B3C3C",
"$	c #070808",
"%	c #2A2B2A",
"&	c #232423",
"*	c #575958",
"=	c #010201",
"-	c #434443",
";	c #191907",
">	c #99932C",
",	c #515119",
"'	c #FFF45B",
")	c #727372",
"!	c #1F2020",
"~	c #0B0C0C",
"{	c #636464",
"]	c #333434",
"^	c #E5CC3C",
"/	c #E5BD38",
"(	c #F5E243",
"_	c #FFD752",
":	c #363837",
"<	c #4B4C4C",
"[	c #1A1A1A",
"}	c #C98427",
"|	c #B37623",
"1	c #DC9532",
"2	c #886D46",
"3	c #5F605F",
"4	c #5B5C5C",
"5	c #6A6C6B",
"6	c #525453",
"7	c #4E504F",
"8	c #565857",
"9	c #474848",
"0	c #6D6251",
"a	c #3F4140",
"b	c #272827",
"c	c #171817",
"d	c #373938",
"e	c #4F5150",
"f	c #272828",
"g	c #171818",
"h	c #423D35",
"i	c #6E706F",
"j	c #6F7170",
"k	c #3F403F",
"l	c #464847",
"m	c #666866",
"n	c #2F3030",
"                                                                ",
"                                                                ",
"                                                                ",
"                                                                ",
"                                                                ",
"                                                                ",
"                                                                ",
"                                                                ",
"    .                                                +@         ",
"    #$                                              #@%         ",
"    &$*                                            #&@@         ",
"    #=-    ;>                               ,'     )!~%         ",
"    #={]   ^/                               (_    %*:~%         ",
"    &=<#  [}|~                              12-   <3.@@         ",
"    #=4<  ]<-5                             6*]&   <*]~%         ",
"    #=-]   7-                               8%    <*[@%         ",
"    &=9#%  8-                               4[    <0[+@         ",
"    #=4<-  7a                               *]    9*]+%         ",
"    &=-]b# <-                               4[ #c <*[@@         ",
"    &=9]b#*8-                               *[ #@ <4[@@         ",
"    #=-6bd96a                               6] #% <8]]e         ",
"    !&&&b#9[a                               *[ #+ce<<-[         ",
"    &=[f+bb!-                               ee<9#$98c@@         ",
"    #=]]@:]gh                               84 #% <i]+%         ",
"    &=9:%##[-                               *[ a@ <4[+@         ",
"    !=-]f#-[a                               *+ #+ <8[+@         ",
"    #=3]-:-c#                               8] 8% 98]@%         ",
"    b=9#%#9[-                               4[ -@ <4[@@         ",
"    #=-]b:4ca                               *] #% 9j[@%         ",
"    #={]-:-[a                               *] 8% <6]+%         ",
"    &=9#%#<[-                               4[ k@ <4[+@         ",
"    d={<-d-[#                               8] *% 96]@%         ",
"    #=-]bd-g#                               *] #% <6[@%         ",
"    &=9d%#9[a                               4[ -@ <*[@@         ",
"    d=*<#d-g#                               8] *% 9e]+%         ",
"    .=-].#-[-                               8& #+ <8[@@         ",
"    &=-]%#-[a                               4[ -@ <8[@@         ",
"    d=-6&d-[#                               *] #% 9e]@%         ",
"    &=-]&#-g#                               *[ a@ <6[+@         ",
"    &&&&&&[.a                               6<----79-l]         ",
"    ]=[.@b][f                               8] a& <mbc]         ",
"    &=[:@#d[a                               8@ k@ <*[@@         ",
"    .=]#&#-[a                               8+ #@ 96[@@         ",
"    #=4]##-[#                               8] 8% 96]@%         ",
"    b=-#%#<[-                               *[ -@ l*[@@         ",
"    #=-d.:4[#                               6n #% l5[@%         ",
"    #=*]h#-g#                               8] 6% -6]@%         ",
"    &=-#b#<[-                               8[ #@ l*[@@         ",
"    #=46#:-c#                               6] 6% le]+%         ",
"    #=#]&d-[#                               e] #% 9<[@%         ",
"    &=-#b#9[-                               8[ #+ 98[@@         ",
"    d=*e#:-[#                               6] 6% l<]@%         ",
"    !=-]&#-[#                               6d :@ l6[@@         ",
"    &=-#b#k&-                               *8l9@ 96[@@         ",
"    #=-7%&.c@                               ]] -3797]+%         ",
"    &c&.c%&c#                               6@ #~@<9e++         ",
"    &@c]c]#[d                               e+ ]@ -<~-%         ",
"    #=&]&:4[#                               e] ]% l5]@%         ",
"    b=]d&]-[#                               6[ #@ l6[@@         ",
"    &=#]&#-[<                               <] ]@ l7[+@         ",
"    #=8]#$                                        -<]@%         ",
"    &=-%                                          [8[@@         ",
"    #                                                @%         ",
"                                                                "};
