/* XPM */
static char * openning_gate_08_xpm[] = {
"64 64 48 1",
" 	c None",
".	c #171818",
"+	c #222322",
"@	c #575958",
"#	c #131413",
"$	c #474848",
"%	c #272828",
"&	c #191907",
"*	c #99932C",
"=	c #3B3C3C",
"-	c #2B2C2B",
";	c #3F4040",
">	c #515119",
",	c #FFF45B",
"'	c #E5CC3C",
")	c #E8C138",
"!	c #565857",
"~	c #EDDA41",
"{	c #FFDA53",
"]	c #1A1B1B",
"^	c #C98427",
"/	c #B37623",
"(	c #0B0B0B",
"_	c #434443",
":	c #DB9432",
"<	c #886D46",
"[	c #363837",
"}	c #4B4C4C",
"|	c #6A6C6B",
"1	c #272827",
"2	c #535453",
"3	c #333433",
"4	c #4E504F",
"5	c #2F3030",
"6	c #464847",
"7	c #5B5C5B",
"8	c #3F403F",
"9	c #5F605F",
"0	c #4F5150",
"a	c #464138",
"b	c #030303",
"c	c #1F201F",
"d	c #1F2020",
"e	c #646564",
"f	c #373838",
"g	c #2F302F",
"h	c #0F1010",
"i	c #413C34",
"                                                                ",
"                                                                ",
"                                                                ",
"                                                                ",
"                                                                ",
"                                                                ",
"                                                                ",
"                                                                ",
"                                     .                          ",
"                  +                  .@+                        ",
"                  #                  .$%                        ",
"           &*    =%                  -;+    >,                  ",
"           ')    !-                  #=+    ~{                  ",
"          ]^/(   _#                  ._+%   :<_                 ",
"          [}_|   !-                  .=+_1 2!3+                 ",
"           4;    =-                  5=+_=  !-                  ",
"           26  7 _#                  ._%%%  @]                  ",
"           48  @ !-                  .=+_+  !3                  ",
"           4;  @ =#                  .=11+; 7]                  ",
"           2_} 7 ;#                  .=%%1_ 2]                  ",
"           489 @ !%                  .=+_%@ 43                  ",
"           0;_ @+6__                 [+]++a ]]                  ",
"           _};_8b=(                  .]1]]]c+}                  ",
"           }17 7 !-                  #-+3%d ]e                  ",
"           2__ @ _#                  .=1%+; ]]                  ",
"           4;_ ! =#                  .[+++8 ]#                  ",
"           2;9 @ @-                  .3+_%= ]3                  ",
"           !_} 7 _#                  .f+%%$ ]]                  ",
"           4;9 @ f-                  -f+==_ ]3                  ",
"           489 @ 2-                  .3+;+= ]3                  ",
"           !;} 7 ;#                  .f%%%_ ]]                  ",
"           }=9 @ 2-                  .[+_+! ]3                  ",
"           }=9 7 =-                  -3+;;= ]3                  ",
"           2_} ! f#                  .f+-+_ ]]                  ",
"           }=7 ! 2-                  .3+=+! ]3                  ",
"           }__ ! 3#                  .f+++= ]%                  ",
"           }8_ ! f#                  .f+++8 ]]                  ",
"           }=7 ! 4%                  .3+=+! ]3                  ",
"           }=_ 2 3#                  .f+++8 ]]                  ",
"           _3;8}a;;;                 3++dcdcd}                  ",
"           +c@ ! 4+                  #]#3#. ]3                  ",
"           }8_ ! f#                  .]+]+3 ]#                  ",
"           }=_ ! 3#                  #g+%+= ]#                  ",
"           }f7 ! }-                  .[d_+= ]3                  ",
"           2__ ! f#                  .f+++_ ]]                  ",
"           }=7 ! 3%                  33+=ff .3                  ",
"           }=@ ! 4-                  .[+=c= .3                  ",
"           2__ 2 f#                  .f+-+_ ]]                  ",
"           }=@ 2 4-                  .3]=+! ]3                  ",
"           }=@ 0 3-                  -[+;f= ]3                  ",
"           2__ 2 f#                  .f+%+a ]]                  ",
"           }=7 2 0-                  .f+;]! ]3                  ",
"           };_ 2 3#                  .[+++= ]%                  ",
"           40; 0 f#                  .f+++=++4                  ",
"           ]h6!_}0-                  .[];c=.]3                  ",
"           }=; }-;=@                 #_+dh. ]#                  ",
"           $[= 2 3(                  +]..d- ]h                  ",
"           $f! 2 4-                  #]+3+[ ]3                  ",
"           }f; 2 [#                  #%+%+= ]]                  ",
"           $}8 2 3#                  .3c++f ]f                  ",
"               ] }-                  .3+i+                      ",
"                 ]#                  ][+                        ",
"                                     g                          ",
"                                                                "};
