/* XPM */
static char * openning_gate_01_xpm[] = {
"64 64 51 1",
" 	c None",
".	c #272828",
"+	c #0C0D0D",
"@	c #191907",
"#	c #99932C",
"$	c #4E504F",
"%	c #242524",
"&	c #4F5150",
"*	c #515119",
"=	c #FFF45B",
"-	c #E5CC3C",
";	c #E5BE38",
">	c #4B4D4C",
",	c #363837",
"'	c #3C3D3C",
")	c #525453",
"!	c #EDDA41",
"~	c #FFD752",
"{	c #1A1A1A",
"]	c #C98427",
"^	c #B37623",
"/	c #565857",
"(	c #373938",
"_	c #5A5C5B",
":	c #DB9432",
"<	c #886D46",
"[	c #434443",
"}	c #6A6C6B",
"|	c #333433",
"1	c #272827",
"2	c #2C2D2C",
"3	c #575958",
"4	c #3F4040",
"5	c #6F7170",
"6	c #0F100F",
"7	c #3F403F",
"8	c #5E605F",
"9	c #171817",
"0	c #2F302F",
"a	c #413C34",
"b	c #474848",
"c	c #646565",
"d	c #141514",
"e	c #0F1010",
"f	c #2F3030",
"g	c #676968",
"h	c #1F201F",
"i	c #474847",
"j	c #666866",
"k	c #171818",
"l	c #070807",
"                                                                ",
"                                                                ",
"                                                                ",
"                                                                ",
"                                                                ",
"                                                                ",
"                                                                ",
"                                                                ",
"                                                                ",
"                                                                ",
"                          .     +                               ",
"           @#          $  %     .&          *=                  ",
"           -;         >,  '     +)          !~                  ",
"          {]^+        /(  %     +_          :<[                 ",
"          ,$[}        >,  '     +)         &_|%                 ",
"           $[         >>  %     1)   %      /2                  ",
"           )[         &(  2     +3   +      _{                  ",
"           $4     5   >,  '     +)   +>     /|                  ",
"           $4    '/   >,  %     +)   +$     /{                  ",
"           )[    4_   $,  %     6/   +)    [_{                  ",
"           >7    /}   >,  %     +)   +>    )3|                  ",
"           >4    ')   >,  %     +)   +&    )/{                  ",
"           >[)/8/)/)/_//$|9    {0a[[[[b[[[[[&>                  ",
"           >[    /}   c|  %     +&   +>    )3c                  ",
"           )[    4)   &(  %     +/   +&    )_{                  ",
"           $4    ()   b,  %     +)   +$    $/d                  ",
"           )'    /}   >,  '     +)   +>    )/|                  ",
"           )[    [_   )(  %     e/   +)    /_{                  ",
"           >4    '}   c>  %     %$   %>    }/f                  ",
"           >4    3}   >|  '     +)   +>    )3|                  ",
"           )[    [_   ),  %     +/   +>    /_{                  ",
"           >'    /}   >|  '     +)   +>    )_|                  ",
"           >'    '}   >>  %     1>   %>    }3|                  ",
"           )[    [/   ),  1     +)   +>    //{                  ",
"           >'    /}   >|  '     +)   +>    )3|                  ",
"           >[    ')   >|  %     +)   +>    >/%                  ",
"           >7    '/   >|  %     +)   +>    )_{                  ",
"           >'    /}   >|  %     +>   +[    &/|                  ",
"           >'    ')   >|  %     +)   +b    &3{                  ",
"           [7))_)&)))3)&)$2    4[[4444[44474)>                  ",
"           %2    /g   g|  h     +>   +[    $)|                  ",
"           >4    ')   )|  %     +&   +>    )/d                  ",
"           >'    '>   >|  %     +>   +b    >)d                  ",
"           >'    /}   b|  '     +>   +i    >)|                  ",
"           /4    [/   >,  .     +)   +>    //{                  ",
"           >'    '}   8>  %     %>   %[    c)f                  ",
"           >'    /g   b|  '     +>   d[    >/|                  ",
"           &4    [/   >,  1     +)   +>    )/{                  ",
"           >'    /g   [|  '     +>   +[    >)|                  ",
"           >'    'j   [>  %     1>   %[    c)|                  ",
"           )[    [)   i,  .     +)   +>    )/{                  ",
"           >'    /g   [|  '     +>   +[    >)|                  ",
"           >4    (>   [2  %     +>   +b    >),                  ",
"           &i))/&))|e bf  %     +>   {b>'7['3>                  ",
"           kd    [_'>/>$g}.    '7''4''2+   >,|                  ",
"           >(    (>   [2  %     +>   +[    >)d                  ",
"           b(    (>   [2  %     +>   +>    >)d                  ",
"           b(    )c   _0  %     +i   +b    >&|                  ",
"           >(    '&   b2  %     +>   +>    >)k                  ",
"           i>    (>   [2  %     +>   +>     &,                  ",
"                          '     +l                              ",
"                                                                ",
"                                                                ",
"                                                                "};
