/* XPM */
static char * openning_gate_03_xpm[] = {
"64 64 40 1",
" 	c None",
".	c #131313",
"+	c #2F302F",
"@	c #474948",
"#	c #2B2C2C",
"$	c #525453",
"%	c #323332",
"&	c #232424",
"*	c #998E2A",
"=	c #515119",
"-	c #FFF45B",
";	c #4B4D4C",
">	c #1F2020",
",	c #E8C138",
"'	c #EBD941",
")	c #FFDC53",
"!	c #191919",
"~	c #B77B24",
"{	c #0C0D0D",
"]	c #DB9432",
"^	c #886C45",
"/	c #575958",
"(	c #373938",
"_	c #434443",
":	c #6A6C6B",
"<	c #5A5B5A",
"[	c #3F4140",
"}	c #565857",
"|	c #474847",
"1	c #272828",
"2	c #4E504F",
"3	c #666866",
"4	c #4F5150",
"5	c #6E706F",
"6	c #676968",
"7	c #1F201F",
"8	c #363837",
"9	c #646665",
"0	c #3C3D3C",
"a	c #000000",
"                                                                ",
"                                                                ",
"                                                                ",
"                                                                ",
"                                                                ",
"                                                                ",
"                                                                ",
"                                               .                ",
"                                               +                ",
"           .                                   @                ",
"           #                                  $%                ",
"           &*                               =-;#                ",
"           >,                               ')$@                ",
"          !&~{                              ]^/%                ",
"          (>_:                             $<%$@                ",
"           >[                               }#$+                ",
"           &|                               <!<%                ",
"           &[                               $%$@                ",
"           &[                               <!$+                ",
"           1[                               <$$1                ",
"           >[                               $:$2                ",
"           ![                               /$%#                ",
"           !_                               $%$#                ",
"           !!                               /3$#                ",
"           &.                               <}}1                ",
"           &.                               <$41                ",
"           &.                               <52_                ",
"           1.                               </$%                ",
"           &.                               /:21                ",
"           &{                               /:2_                ",
"           1.                               </$+                ",
"           &.                               <:2_                ",
"           &.                               /:21                ",
"           &.                               </$1                ",
"           &.                               }:2_                ",
"           &.                               }$4#                ",
"           &.                               <$$#                ",
"           &.                               <6;#                ",
"           &.                               <$;1                ",
"           !!                               $%+@                ",
"           !.                               26+[                ",
"           !.                               }$41                ",
"           !.                               $221                ",
"           >.                               $:2|                ",
"           &!                               </4+                ",
"           &.                               }:;1                ",
"           &.                               }6;_                ",
"           &.                               /}4+                ",
"           7.                               $6;_                ",
"           &.                               $:;&                ",
"           &!                               }}4#                ",
"           &.                               $6;_                ",
"           &!                               $4;#                ",
"           &!                               <22#                ",
"           &.                               8|;&                ",
"           !.                               $48&                ",
"           !.                               $2%@                ",
"           !.                               $9;&                ",
"           !.                               $24&                ",
"           &!                               $;;&                ",
"           &                                  ;0                ",
"           &                                  41                ",
"           a                                   &                ",
"                                               #                "};
