/* XPM */
static char * openning_gate_02_xpm[] = {
"64 64 47 1",
" 	c None",
".	c #131413",
"+	c #222322",
"@	c #171817",
"#	c #575958",
"$	c #474848",
"%	c #272828",
"&	c #191907",
"*	c #99932C",
"=	c #3B3C3C",
"-	c #2B2C2B",
";	c #3F403F",
">	c #515119",
",	c #FFF45B",
"'	c #E5CC3C",
")	c #E8C138",
"!	c #565857",
"~	c #EDDA41",
"{	c #FFDB53",
"]	c #1A1B1B",
"^	c #C98427",
"/	c #B37623",
"(	c #0B0B0B",
"_	c #424443",
":	c #DB9432",
"<	c #886D46",
"[	c #363837",
"}	c #4E504F",
"|	c #6A6C6B",
"1	c #4F5150",
"2	c #333434",
"3	c #3F4040",
"4	c #2F3030",
"5	c #373838",
"6	c #535453",
"7	c #464847",
"8	c #5A5C5B",
"9	c #272827",
"0	c #4B4C4C",
"a	c #1F201F",
"b	c #030303",
"c	c #646564",
"d	c #413C34",
"e	c #5F605F",
"f	c #1F2020",
"g	c #2F302F",
"h	c #0F1010",
"                                                                ",
"                                                                ",
"                                                                ",
"                                                                ",
"                                                                ",
"                                                                ",
"                                                                ",
"                                                                ",
"                                     .                          ",
"                  +                  @#+                        ",
"                  .                  @$%                        ",
"           &*    =%                  -;+    >,                  ",
"           ')    !-                  @=+    ~{                  ",
"          ]^/(   _.                  @_+%   :<_                 ",
"          [}_|   !-                  .=+_% 1#2+                 ",
"           13    =-                  45+_=  !-                  ",
"           67  8 _.                  @_%%%  8]                  ",
"           };  # !-                  @5+_+  !2                  ",
"           }3  # =.                  .5%9+; 8]                  ",
"           6_0 # ;.                  @=%%+_ 6]                  ",
"           };8 # !-                  @=+3%# 12                  ",
"           }3_ 8+0__                 5+aa+= ]]                  ",
"           $03__b=(                  @]9@]]++0                  ",
"           $%c ! !-                  .%+29+ @c                  ",
"           63_ # ;.                  @=9-+_ ]]                  ",
"           13_ # =.                  @[+%+d ].                  ",
"           1de 8 !-                  @[+d%= ]2                  ",
"           6_0 8 3.                  @5+%%_ ]]                  ",
"           038 8 5-                  -[+;=_ ]2                  ",
"           03e ! 6%                  @2+_9; ]2                  ",
"           6_0 8 =.                  @5%%+; ]]                  ",
"           0=8 # 6-                  @2+_+! ]2                  ",
"           0=e # 5-                  -[+d;= ]2                  ",
"           6_$ ! 5.                  @5%-+_ ]]                  ",
"           0=8 ! 6-                  @2+;+! ]2                  ",
"           0__ ! [.                  @[+++; ]+                  ",
"           03$ ! 5.                  @5+++3 ]]                  ",
"           0=8 ! }-                  @2+=+# ]2                  ",
"           0=; ! 2.                  .5+++d ]]                  ",
"           _23__33;_                 [++]+f+a0                  ",
"           +f8 ! 0+                  .]@2@] ]2                  ",
"           0;_ ! 5.                  @]+]+- ].                  ",
"           0=_ 6 [.                  .ga%+= ]h                  ",
"           0=8 6 1%                  @2]_a= @2                  ",
"           6_$ 6 5.                  @5+++3 ]]                  ",
"           0;8 6 [-                  4[+=55 @2                  ",
"           0=# 6 }-                  @2+=+= ]2                  ",
"           }__ 6 5.                  @5+%+_ ]]                  ",
"           0=8 6 }-                  @[];f# ]2                  ",
"           0;# 1 [-                  45+;== ]2                  ",
"           !3$ 6 [.                  ]=+%f3 ]]                  ",
"           0=8 6 1-                  @[a3]! ]2                  ",
"           0=3 1 2.                  @[++]= ]-                  ",
"           }0; 6 5.                  @5+++=++1                  ",
"           ].$!_01-                  @[a3+=]]2                  ",
"           0[5 0%==#                 @=a+.@ ].                  ",
"           $5= 6 [(                  +]]@+- ].                  ",
"           $=# 1 }-                  .]a2a5 ]2                  ",
"           }=; 6 5.                  .%++f5 ]]                  ",
"           _0; 6 2.                  @2a++5 ]5                  ",
"               ] 1-                  @2a=+                      ",
"                 @.                  ][+                        ",
"                                     4                          ",
"                                                                "};
