/* XPM */
static char * openning_gate_06_xpm[] = {
"64 64 51 1",
" 	c None",
".	c #232423",
"+	c #0F1010",
"@	c #111111",
"#	c #373938",
"$	c #070808",
"%	c #3B3C3C",
"&	c #2A2B2A",
"*	c #575958",
"=	c #010202",
"-	c #434443",
";	c #191907",
">	c #99932C",
",	c #515119",
"'	c #FFF45B",
")	c #727372",
"!	c #636464",
"~	c #333434",
"{	c #E5CC3C",
"]	c #E5BD38",
"^	c #F5E243",
"/	c #FFD752",
"(	c #4B4C4C",
"_	c #1A1A1A",
":	c #C98427",
"<	c #B37623",
"[	c #0B0C0C",
"}	c #DC9532",
"|	c #886D46",
"1	c #5F6160",
"2	c #1F201F",
"3	c #5B5C5C",
"4	c #4E504F",
"5	c #6A6C6B",
"6	c #525453",
"7	c #565857",
"8	c #171818",
"9	c #474848",
"0	c #5F605F",
"a	c #3F4140",
"b	c #272827",
"c	c #3F403F",
"d	c #171817",
"e	c #1F2020",
"f	c #4F5150",
"g	c #272828",
"h	c #363837",
"i	c #6F7170",
"j	c #464847",
"k	c #2F3030",
"l	c #676968",
"                                                                ",
"                                                                ",
"                                                                ",
"                                                                ",
"                                                                ",
"                                                                ",
"                                                                ",
"                                                                ",
"    .                                                +@         ",
"    #$                                              %@&         ",
"    .$*                                            #.@@         ",
"    %=-    ;>                               ,'     ).@&         ",
"    %=!~   {]                               ^/    &*#@&         ",
"    .=(%  _:<[                              }|-   (12@@         ",
"    %=34  ~(-5                             6*~.   (*~[&         ",
"    %=-~   4-                               7&    (*8@&         ",
"    .=9#&  7-                               *_    (0_@@         ",
"    %=34-  4a                               7~    9*~@&         ",
"    .=-~b% (-                               3_ cd (3_@@         ",
"    .=-~b%*7-                               3_ c@ (3_@@         ",
"    %=-6b#96a                               6~ %& (*~~4         ",
"    e...b#98c                               *_ %@_f((-_         ",
"    .=_g@bb2-                               66((#$(7_@@         ",
"    %=~~@h~8c                               *3 %& (i~+&         ",
"    .=j#&#%_-                               *_ c@ (3_@@         ",
"    .=-~b#j_-                               7+ %+ (7_+@         ",
"    %=0~-#-d%                               *~ 7& 97~@&         ",
"    b=9%&#(_-                               *_ -@ (3_@@         ",
"    #=-~b#3_a                               *~ %& 9i_+&         ",
"    %=0h-#-8c                               *~ *& 96~+&         ",
"    b=9#&%(_-                               3_ -@ (3_@@         ",
"    %=1f-#-_%                               *~ *& (6~@&         ",
"    %=-~b#-8c                               *~ %& (7_@&         ",
"    .=j#&%9_-                               3_ -@ (*_@+         ",
"    %=3(%#-_%                               *~ *& 96~@&         ",
"    2=-~.#-_-                               *. %@ 97_@@         ",
"    .=-~&#-_-                               *_ -@ (7_@@         ",
"    %=-6.#-_%                               *~ %& 96~@&         ",
"    .=-~b#-8%                               *_ c@ 96_+@         ",
"    ......22a                               6(----4j9j~         ",
"    ~=8.@b~_g                               6~ %. 9!bd~         ",
"    .=_#@##_c                               7@ c@ (*_@@         ",
"    2=~~2#-_%                               7@ %@ 96_@@         ",
"    %=*~%#-8%                               7~ 7& 96~+&         ",
"    .=-#&%(_a                               *_ -@ j*_@@         ",
"    #=-~2#3d%                               6~ %& j5_@&         ",
"    #=*~%#-8%                               6~ 6& -6~@&         ",
"    .=-%b%(_c                               6_ %@ j3_@@         ",
"    %=3f%#c_%                               6~ 6& j4~[&         ",
"    #=a~.#-_%                               6~ #& -(_@&         ",
"    b=-#b%9_-                               7_ %+ 97_@@         ",
"    %=3f%ha_%                               6~ 6& j6~@&         ",
"    .=-~.#-d-                               6# #@ j6_@@         ",
"    .=-#b%-2j                               **jj@ 96_@@         ",
"    %=c6b..d@                               ~~ -04-6~@&         ",
"    .de2_b.d#                               6+ %[@(9(@@         ",
"    .@dkd~%8%                               f@ ~@ -([-&         ",
"    %=.~.#3_#                               6~ ~& jl~+&         ",
"    .=~h.~j_%                               6_ #@ j6_@@         ",
"    .=%~.~-_(                               (# ~@ j4_+@         ",
"    %=*~%$                                        -(~@&         ",
"    b=-&                                          _7_@@         ",
"    #                                                @&         ",
"                                                                "};
