/* XPM */
static char * openning_gate_05_xpm[] = {
"64 64 53 1",
" 	c None",
".	c #0C0D0D",
"+	c #5A5B5B",
"@	c #3F4140",
"#	c #232323",
"$	c #636464",
"%	c #2B2B2B",
"&	c #272828",
"*	c #191907",
"=	c #99932C",
"-	c #515119",
";	c #FFF45B",
">	c #3B3C3B",
",	c #E5CC3C",
"'	c #E5B335",
")	c #F5E143",
"!	c #FFD752",
"~	c #3F403F",
"{	c #070808",
"]	c #1A1B1B",
"^	c #C98427",
"/	c #B37623",
"(	c #DB9432",
"_	c #886D46",
":	c #434343",
"<	c #5F6160",
"[	c #373838",
"}	c #525453",
"|	c #6A6C6B",
"1	c #4F5050",
"2	c #2F3030",
"3	c #1F201F",
"4	c #070807",
"5	c #4B4D4C",
"6	c #565857",
"7	c #1F2020",
"8	c #333433",
"9	c #575958",
"0	c #5F605F",
"a	c #4E504F",
"b	c #2F302F",
"c	c #171817",
"d	c #474847",
"e	c #020302",
"f	c #474848",
"g	c #131313",
"h	c #666866",
"i	c #272827",
"j	c #676968",
"k	c #413C34",
"l	c #171818",
"m	c #464138",
"n	c #0F1010",
"                                                                ",
"                                                                ",
"                                                                ",
"                                                                ",
"                                                                ",
"                                                                ",
"                                                                ",
"                                                                ",
"                                                       .+       ",
"                                                      @#$       ",
"                                                      %&$       ",
"           *=                               -;        >#$       ",
"           ,'                               )!        ~#$       ",
"     {    ]^/.                              (_:       %&<       ",
"     {#   [}:|                             1+23       >#$       ",
"     4.    5:                               6%        >7<       ",
"     {.]   }:                               +]        ##$       ",
"     {#8   }@                               98        >3$       ",
"     4.]18 1@                               9]        3#0       ",
"     {.]}[ 1:                               9]:8      3#0       ",
"  ]  {.858 a@                               68>8      >>6       ",
"  #bb%%ca8 @@                               6]>8   :}}}}d       ",
"     e{.%22}:                               }51aafg   330       ",
"     e{{58 &@                               9+88      >[+       ",
"     {.]}8 ]:                               6]>8      ##+       ",
"     {.]5[ @~                               9g>8      33+       ",
"     {#]h8 @~                               98>5      >]+       ",
"     {.]}[ ::                               9]:8      #39       ",
"     {.]f8 >:                               68>8      >36       ",
"     {i]j8 @@                               68~f      >36       ",
"     {.]1[ ::                               +]:[      ##+       ",
"     {#8$8 @~                               68>:      >#9       ",
"     {.g58 @k                               68~%      >#9       ",
"     ..l}[ ::                               9]:8      ##+       ",
"     {&2h[ @>                               68>:      >39       ",
"     4.ca[ ::                               6#>%      ]]6       ",
"     4.c1[ ::                               +]>2      3#+       ",
"     {.%58 @>                               68>%      >[6       ",
"     {.cf[ >>                               6]>%      ]36       ",
"  %2%%%#%%#8@                               }5f555}a5aaa5       ",
"  {  e4{88 l&                               }8[%      %%d       ",
"     e4ga[ #~                               6g[%      3#+       ",
"     {.gf8 >@                               6.8%      3#6       ",
"     {#ch8 >>                               }8[f      >]9       ",
"     4.l}[ ~@                               6]>8      ##6       ",
"     {.g58 >>                               }88%      [36       ",
"     {&c$8 >>                               }8[f      []6       ",
"     {.g}8 @@                               6]>8      ##6       ",
"     {#2h8 >@                               }8[f      >36       ",
"     {.g58 >@                               }882      >39       ",
"     4.]58 ::                               6][8      ##9       ",
"     {#2h8 m@                               }8[f      >]}       ",
"     ..cf8 >~                               }[88      3#}       ",
"     {.c5>&1f                               6a5}      ##6       ",
"     {[@i& ]n                               [8#%h5}:  >>}       ",
"   }%&#{8[ l[                               1g8%   8555>6       ",
"  &. e{{:8 >>                               }g8%      ]7d       ",
"     e.c:8 >[                               188%      [[6       ",
"     4.]f[ :@                               }][%      #7}       ",
"     {.c:8 @5                               1>]%      7]}       ",
"     {ig                                              []}       ",
"                                                      ##}       ",
"                                                       {}       ",
"                                                                "};
