/* XPM */
static char * openning_gate_00_xpm[] = {
"64 64 52 1",
" 	c None",
".	c #191907",
"+	c #99932C",
"@	c #515119",
"#	c #FFF45B",
"$	c #E5CC3C",
"%	c #E5BD38",
"&	c #2F3030",
"*	c #575958",
"=	c #EDDA41",
"-	c #FFD752",
";	c #1A1A1A",
">	c #CC8628",
",	c #B97B25",
"'	c #0C0C0C",
")	c #222323",
"!	c #5A5B5A",
"~	c #DB9432",
"{	c #886C45",
"]	c #424343",
"^	c #333433",
"/	c #56524A",
"(	c #474847",
"_	c #6A6C6B",
":	c #363837",
"<	c #6E706F",
"[	c #535453",
"}	c #4E504F",
"|	c #3F4040",
"1	c #3B3C3B",
"2	c #2B2B2B",
"3	c #474948",
"4	c #1F201F",
"5	c #272828",
"6	c #565857",
"7	c #171817",
"8	c #070807",
"9	c #2F302F",
"0	c #4F5150",
"a	c #373838",
"b	c #0F1010",
"c	c #4B4D4C",
"d	c #171818",
"e	c #5E605F",
"f	c #121212",
"g	c #272827",
"h	c #646564",
"i	c #070808",
"j	c #1F2020",
"k	c #676968",
"l	c #3F403F",
"m	c #666866",
"                                                                ",
"                                                                ",
"                                                                ",
"                                                                ",
"                                                                ",
"                                                                ",
"                                                                ",
"                                                                ",
"                                                                ",
"                                                                ",
"                                                                ",
"           .+                               @#                  ",
"           $%            &    *             =-                  ",
"          ;>,'           )    !             ~{]                 ",
"          ^/(_        '  :    <   '        [!^)                 ",
"           }|         ^  1    [   &         [2                  ",
"           [3         1  )    !   ^         !;                  ",
"           }|         ^  1    _   &  4      [^                  ",
"           }]         1  ;    [   2  5      6;                  ",
"           [|  7  8   1  )    [   9  2      *;                  ",
"           01  *  )   a  :    _   &  5   b  *^                  ",
"           c1  !  8   1  ;    [   &  5   b  6d                  ",
"           (] 1e11111]011|]] 1[1|1c11(]11|a1[c                  ",
"           c1 5(55&bffcf51fb b]'bb)fg2b'5b7b6h                  ",
"           []  !  8   1  ;    *   ^  2   f  !;                  ",
"           }|  !  8   ^  ;    [   2  5   f  6b                  ",
"           }|  *  )   ^  :    [   2  5   f  [^                  ",
"           [(  !  i   1  )    !   ^  2   f  !;                  ",
"           c|  *  )   0  1    [   &  ]   5  6^                  ",
"           c|  !  )   ^  :    [   2  5   '  6^                  ",
"           []  !  i   1  )    [   ^  &   f  !;                  ",
"           c1  [  j   &  a    k   2  )   b  [^                  ",
"           c1  [  )   ^  1    }   2  |   2  [^                  ",
"           }]  [  i   ^  )    *   &  )   f  6;                  ",
"           c1  [  j   ^  :    k   2  )   '  6^                  ",
"           c]  *  8   ^  ;    0   2  )   f  6)                  ",
"           cl  !  i   ^  )    [   2  )   f  *;                  ",
"           c|  *  )   ^  :    m   2  )   b  6^                  ",
"           c1  [  8   ^  ;    }   2  )   f  !;                  ",
"           ]]f[![[0[[*[[[[[[ [[[[[0[[[[[[[[[[]                  ",
"           )2  [  )   c  :    0   2  )   b  [^                  ",
"           c|  6  '   a  4    [   2  )   f  [b                  ",
"           c1  [  '   ^  ;    0   5  )   b  [b                  ",
"           c1  [  )   &  1    c   5  )   '  [^                  ",
"           [|  [  '   a  )    0   5  5   f  6;                  ",
"           c1  [  )   c  1    c   5  |   5  [^                  ",
"           c1  [  )   2  1    c   5  )   '  [^                  ",
"           0]  [  '   ^  )    [   2  5   f  [;                  ",
"           c1  [  )   ^  ^    h   5  )   f  [^                  ",
"           c1  [  )   ^  1    c   5  ]   5  [^                  ",
"           [|  [  '   ^  ;    [   2  )   f  [;                  ",
"           c1  0  )   ^  ^    h   5  )   b  [^                  ",
"           c1  [  '   ^  ;    c   5  )   '  [1                  ",
"           [(^[*[[[[[![0[[[! [[[[[[[[[[[[[[[6}                  ",
"           ;f  [  )   ^  ^    h   5  5   b  1^                  ",
"           ca  [  '   ^  ;    c   5  )   b  0b                  ",
"           (a  [  '   2  ;    c   5  )   f  }b                  ",
"           31  [  )   (  a    c   5  )   b  0^                  ",
"           c1  [  '   2  )    }   2  )   '  [;                  ",
"           3c                               }^                  ",
"                                                                ",
"                                                                ",
"                                                                ",
"                                                                "};
