/* XPM */
static char *_f55b2d22a904f19e1ed0d077f03c0466X0Gl0mXn3o7gSzm[] = {
/* columns rows colors chars-per-pixel */
"64 64 239 2 ",
"   c #060402",
".  c #0D0A04",
"X  c #0D0B07",
"o  c #130E0A",
"O  c #110B04",
"+  c #15110C",
"@  c #1C150D",
"#  c #1D1A0C",
"$  c #171006",
"%  c #151412",
"&  c #1B1612",
"*  c #1C1A13",
"=  c #1D1D19",
"-  c #261809",
";  c #231D14",
":  c #231E1A",
">  c #2A1F13",
",  c #35220E",
"<  c #252215",
"1  c #2C2215",
"2  c #25221B",
"3  c #2C251C",
"4  c #2D281D",
"5  c #2F2A17",
"6  c #332617",
"7  c #32261A",
"8  c #342A1D",
"9  c #3A2C1D",
"0  c #392713",
"q  c #3C331E",
"w  c #2B2621",
"e  c #2E2A23",
"r  c #2A2A26",
"t  c #342C23",
"y  c #392E23",
"u  c #332E29",
"i  c #382F28",
"p  c #353025",
"a  c #3C3324",
"s  c #35312B",
"d  c #3B342B",
"f  c #3D382D",
"g  c #3B3631",
"h  c #3E3933",
"j  c #3E3E3A",
"k  c #373634",
"l  c #402F1E",
"z  c #4B3A1A",
"x  c #423424",
"c  c #433926",
"v  c #4A3A24",
"b  c #41362B",
"n  c #443A2C",
"m  c #4B3D2C",
"M  c #4B3723",
"N  c #513E2C",
"B  c #433C33",
"V  c #4A3E32",
"C  c #433E39",
"Z  c #463B37",
"A  c #503E30",
"S  c #4C412D",
"D  c #52432D",
"F  c #5A452E",
"G  c #464035",
"H  c #4C4234",
"J  c #46413A",
"K  c #4C443B",
"L  c #4D493D",
"P  c #524534",
"I  c #534936",
"U  c #5B4B35",
"Y  c #52463A",
"T  c #544A3C",
"R  c #5B4D3C",
"E  c #594733",
"W  c #5C513E",
"Q  c #5E502B",
"!  c #6B562A",
"~  c #72592E",
"^  c #604F3D",
"/  c #614D35",
"(  c #635333",
")  c #64533C",
"_  c #6A563B",
"`  c #6C593D",
"'  c #6C5A36",
"]  c #735938",
"[  c #644B2D",
"{  c #6F683D",
"}  c #766339",
"|  c #75662D",
" . c #50491F",
".. c #4B4642",
"X. c #4E4942",
"o. c #494745",
"O. c #534C43",
"+. c #5A4E42",
"@. c #534E49",
"#. c #554C46",
"$. c #565145",
"%. c #5C5344",
"&. c #56524A",
"*. c #5B544B",
"=. c #5E594D",
"-. c #5D5844",
";. c #5B5551",
":. c #5D5A53",
">. c #5A5857",
",. c #625544",
"<. c #685644",
"1. c #645945",
"2. c #6C5B44",
"3. c #62564A",
"4. c #645A4B",
"5. c #6B5D4C",
"6. c #695749",
"7. c #735E44",
"8. c #715F4C",
"9. c #645C53",
"0. c #6A5E52",
"q. c #645E59",
"w. c #645A55",
"e. c #6C614D",
"r. c #756344",
"t. c #796344",
"y. c #73634C",
"u. c #7D664B",
"i. c #7B6A4A",
"p. c #7B6F45",
"a. c #666155",
"s. c #6C6253",
"d. c #66615B",
"f. c #6C655B",
"g. c #6E695C",
"h. c #736454",
"j. c #796754",
"k. c #746956",
"l. c #7C6B55",
"z. c #71665A",
"x. c #736B5B",
"c. c #7C6C5A",
"v. c #76715E",
"b. c #79705F",
"n. c #7E7242",
"m. c #615F60",
"M. c #666462",
"N. c #6B6661",
"B. c #6E6A63",
"V. c #6E6C6B",
"C. c #736D63",
"Z. c #796E64",
"A. c #736E6A",
"S. c #786B67",
"D. c #757165",
"F. c #7B7164",
"G. c #76726B",
"H. c #7B746B",
"J. c #7E7A6C",
"K. c #7A7671",
"L. c #7C7974",
"P. c #7D7C79",
"I. c #757371",
"U. c #706D6F",
"Y. c #83743D",
"T. c #897546",
"R. c #826D53",
"E. c #826D59",
"W. c #837155",
"Q. c #82725D",
"!. c #8C785C",
"~. c #8B7656",
"^. c #927C5C",
"/. c #806D4F",
"(. c #837462",
"). c #8A7966",
"_. c #82766A",
"`. c #827B6E",
"'. c #8B7D6C",
"]. c #897762",
"[. c #937E62",
"{. c #837C74",
"}. c #827D79",
"|. c #887C77",
" X c #908656",
".X c #868168",
"XX c #978565",
"oX c #858174",
"OX c #8B8374",
"+X c #85817C",
"@X c #8A837A",
"#X c #8D897A",
"$X c #928373",
"%X c #92897B",
"&X c #989276",
"*X c #A08567",
"=X c #787A84",
"-X c #8B8582",
";X c #888987",
":X c #948C85",
">X c #958E89",
",X c #99948C",
"<X c #979287",
"1X c #8A8E98",
"2X c #999995",
"3X c #8F9384",
"4X c #A29A8B",
"5X c #A39E99",
"6X c #99A18F",
"7X c #A8A69B",
"8X c #B9B38F",
"9X c #949BAB",
"0X c #9EA2A6",
"qX c #9AA5B5",
"wX c #ABACA4",
"eX c #A4A7A1",
"rX c #B1AEAA",
"tX c #A8B1A7",
"yX c #A3AABB",
"uX c #ACB7B5",
"iX c #B5B9B2",
"pX c #BCC2BB",
"aX c #C1C4BB",
"sX c #C1C0AE",
"dX c #AABBCD",
"fX c #B2BBCB",
"gX c #C0BFC4",
"hX c #BAC3C9",
"jX c #C8CBCA",
"kX c #CED4CD",
"lX c #D7DDD7",
"zX c #D1D7CC",
"xX c #E0DFDA",
"cX c #E5E1D5",
"vX c #DAE5EE",
"bX c #EAF3FD",
"nX c #F6FAFB",
"mX c #EBEDEC",
"MX c #C7DBE6",
/* pixels */
"9.f.9.f.*.9.f.*.d.O.Y H H Y Y Y H %.H R U ,.D R R I S T T H n T O.0.3.a.*.s.,.6.5.y.<.0.0.0.9.9.;.>.>.;XyXfX0X2X6XzXnX&XY.7.U  X",
"G.J.|.J.w.9.*.*.O.#.*.*.0.0.%.P 3.m ,.P I P m x n b d n V d t y H #.=.4.f.s.,.Y s.1.R R s.0.C.C.K.A.=XqXvXbXhXuXwXaXnX8X| F M { ",
"f.C.G.J.f.f.*.O.q.*.#.0.%.Y ,.R ,.R ,.I ,.R H T K K G d f a d f Y 6.4.0.0.a.s.s.s.x.x.x.z.f.G.@X@X;XqXfXnXnXhXhXkXzXnXXXT.t.(  .",
"G.@Xf.G.9.9.3.*.O.9.0.a.z.0.,.R R R I ,.Y T Y L B B B V O.*.%.Y R h.s.x.0.3.s.z.a.x.z.F.C.H.H.|.|.1XqXdXbXnXfXfXjXzXnX.X X} ' { ",
"L.oXC.L.J.C.f.=.x.#.0.Z.s.3.6.s.) ) R R 4.O.*.O.O.%.%.%.+.,.6.6.y.h.s.4.s.K -.+.4.4.z.F.%X@X@XoX@X1XqXdXMXvXyX9XgXjXnX7X} T.} ( ",
"{.H.oXJ.|.G.J.H.F.f.f.0.F.Z.,.P ) ^ I n 9.*.O.*.3.3.+.T m I ,.h.Q.c.k.h.Z.0.z.h.s.x.'.OX%X@X@X,X>X0XdXqXyX9X1X=XjXpXbXcXn.T.~ ' ",
"@X#X5X,X@XC.G.H.z.0.H.x.z.6.0.6.5.R R +.V *.4.O.*.H V Y %.5.h.k.j.F.F.'.'.'.'.$XOX'.].'._.@X@X,X2X0X0X1X1X=X=XI.jXaXbXxXp.T.| ( ",
":X:XL.>X@X@X@XJ.z.f.9.T s.5.k.R U R m Y a B =.O.d.#.#.O.K H %.6.5.5.5.%.5.k.(.).'.).$X$X<X<X:X,X2X2X2X;X=XU.V.G.pXiXvXmXp.} | } ",
"@X|.{.@XoXJ.C.C.x.x.%.O.=.9.O.O.O.d a L p B p J J h j w r j j s g s B G K K O.*.y.c.Q.).$X%XoX:X-X:X:X-XI.M.B.A.uXwXlXkXl.{ ( ~ ",
"C.F.H.G.J.{.C.f.C.Z.f.B.f.N.9.9.f.4.K O.L J h g J @.C 2 = * 2 j u e g 3 w g e C K 4.Z.z.x.z.H.H.{.|.|.}.A.m.N.N.uXwXjXlXy.} r.! ",
"x.`.F.H.{.F.`.H.f.f.w.B.N.N.&.O.Y Y *.f.C.=.@.X...: g J @.s @.2 2 + & : o * = w = = 2 K O.0.0.s.C.Z.G.K.A.M.N.x.5XrXhXkX~.~ Q z ",
"x.x.x.a.x.x.x.H.C.H.C.G.9.=.K K 4 B C.f.9.9.O.s h ....;.;.;.d.s w & * i 2 2 s s j s w t d d O.9.;.9.w.N.B.M.g.x.5X7XuXiXr.~ U W ",
"$.s.-.4.a.*.s.%.4.x.s.g.4.$.n K n B #...K *.O.q.2 ..e u e w t g t 7 y 8 K O.d B m Y n y B K O.&.*.*.*.q.B.N.g.x.%X7XtXpXy.F K G.",
"a b K V G G g.@X&X'.1.H b t < t B d g B.G.&.p :.O.*.K B 3 . & t 8 n T P Y V n K z ) R ,.V B B o.=.&.#.q.B.B.B.x.3XOX6XtX1.S eXiX",
"d p 8 p t f wXnXOXx.e.%.n @ . + & : C G.L.d.J =.*.*.p ; t B 3 t n a y P P c V 7 2.) ^ ,.*.B O.K O.K K 9.B.M.d.s.;X#X4X>X,.$.pX7X",
"d t p p p L iXnX4Xx.s.s.Y 2 = % o   @.L.N.B.d.H.*.d B ; K 8 7 b b n V V n Y c y Y P R 0.Y H #.G K B K 9.B.N.d.0.=X%X$XF.6 :.2X4.",
". + * * 2 3 rXnX@Xx.6.0.L % X % % o ;.L.f.H.H.q.G.*.B y H y 3 g R 5.P m P 5.R R 3.R <.R R +.T B V b T *.9.d.=.=.oXoX#.t & w.+.N ",
"+   o + # $.7XmXG.s.,.%.t & o %   % :.oXL.f.q.L B G.n 3.m 7 Y K 9 T +.7 H R 9 3.6.h.5.U 2.,.6.K K V H %.9.:.O.0.f.J.O.# O p d 9 ",
"o & + 3 T k..XsX-Xg.4.-.3 + + o o   L.{.f.H.f.B f.C.> x.H 9 x +.y F.%.n 0.1 0.z.R <.) ) 8.<.R m H T P H *.f.9.0.G.#XF.G B.&.A.oX",
"3 t p n h.W %.#XaXD.0.4.K t ..#.w u A.f.B C.d.K X.#.K a 9 1 8 7 8 B d d H d Y T A <.,.j.j.h.c Y T H P H 0.a.f.0.:.J.H T $.B.P.}.",
"m 5 H d +.H 0.>XaXC.s.4.B 3 J O.@.d oXf.q.w.f.X.X.J X.t B 8 V y 3 4 Y Y *.Y V y 0.%.T 5.9 P V T T H I R %.*.4.+.=.`.R H B.;.q.h ",
"q q n b T Y C.,XwXg.3.s.*.9.O.d C @.G.d.A.N.g ;.o.o.g X.2 B t B H B n V b +.b +.y 4.$.%.+.R T 0.a P I 4.K =.*.O.=._.H K G.A.+X}.",
"7 H p K O.Y 4.J.,Xf.4.4.V K B n X.H.G.N.d.;.&.9.*.p O.B O.t d 1 T V b b 6.5.%.-.a 4.x.-.3.P R %.n n m 4.=.X.X.=.=.F.b H e j ;.B ",
"d t g K H -.-.#XrXx.3.6.O.B t p B B.}.V.M.>.:.d.n O.O.4.y 8 n n H V H n R Y T %.P P F.6.R P <.<.G P K L d.X.L Y X.H.d g ..r f L ",
"p d p K T Y a.{.eXg.%.,.T K g t 2 2X5X{.C.B.j ;.d K Y 9.d t K L -.H T m ,.6.R U V 3.R I 6.5.h.s.Y H I T C.@.O.L Y J.a O.f.B B.V.",
"e d B K B B 9.J.eXA.-.%.K B d a k L.C.C.A.d.B.;.O.K d Y B @.d n K V T T m Y H m 3.s.,.8.(.5.h.].R R H T 0.&.O.&.O.F.y B d J @.r ",
"e f a O.V B L H.7XH.4.%.Y J B B h P.L.A.f.O.@.:.O.K H p #.e G d T K V K B T 3.0.f.3.R ).k.2.j.].R I n Y =.;.L O.O.|.t K 9.d...M.",
"d O.V 9.G d p {.2XA.4.%.O.J g d h -XN.w.L.*.&.&.w.B y d K t O.8 H H H Y h.+.%.4._.0.H F.h.l.c.5.,.P n K =.;.O.L O.G.p f J i q.d.",
"p f B K B d B G.>XB.4.%.O.g d d ;.>X+Xd.B.J &.O.C *.B d n K y T x H Y H 5.H R +.0.F.6.6.5.8.c.].s.Y H T %.:.#.O.@.H.3 g L G.u C ",
"y t f 0.3 B g d.+Xf.s.,.Y d B J w.@X-XI.B.d.&.a.9.d p Y Y d y T c Y ,.W W W e.W +.s.s.3.$XQ.Q.y.6.I H -.O.=.K Y X.L.2 B *.L C ..",
"B t a.0.B 3 B d.{.4.5.,.H t g C K ,XG.A.A.d.&.*.K K V d i V d 8 H H H b 7 m %.Y h.6.,.H h.5.y.2.6.S H %.Y &.K K ..G.4 B $.4 B d ",
"8 8 b p i B B N.#X4.e.1.P t d d O.+XB.g d.=.O.G d a T 4 3 b t n t b V V V V V Y j.l.%.R F.'.y.j.c.S H K O.@.#.O.@.f.4 g f.< L 9.",
"i 3 s s h X.O.f.%XJ.4.4.T y B O.>.>X,XA.=.@XY a.a ,.6.$ y ; ; n 8 R c., ) F M 2.s.%XR c.^ E.XXu.e.I b G O.$.O.L O.g.e t ..+ h :.",
"y a p B K K &.H.@XC.a.-.%.K H J d.N.G.:.#.f.8 f.I m Y - d 1 V +.H %.(.- R.F 8.].P (.5.j.2.E.].7.E m P H O.G X.O.K f.3 B J p O.g ",
"g a d ..J L #.f.:XC.x.4.-.O.B d C {...:.J L a d c 9 c > O.; n a.c P E 0 F N ,.5.x 5.k.^ 2.8.l.l.y.S n V O.J X.L O.9.4 3 g s B =.",
"a d a d B O.B f.@Xf.f.a.4.T V B h }.q.A.C.w.=.K Y R d K H K b K P ,.^ ) R R 8.5.8.5.).l.(.c.(.5.e.S b T $.O.O.O.L g.4 O.f p B g ",
"B t d B t B K C.@Xg.x.C.a.K K K g A.q.A.9.f.Y %.7 4.%.d H T T T %.6.x m h.k.5.R 5.h.c.6.l.k.(.(.) m 9 a B O.*.*.L =.1 1 B B X.u ",
"p t 1 d B a B A.{.f.f.x.0.K B g C }.G.q.9.#.=.B p d H d 7 V P 6 V 1.H R ,.,.<.6.^ h.c.6.h.s.h.k.W D S n 9.f.f.O.&.*.t B K G : s ",
"g t t K Y O.9.|.J.f.C.f.a.*.K K K {.{.A.f.9.#.B i 3 V a x 7 b c b n %.Y P c <.2.k.I 6.5.<.(.$Xh.S S n d *.=.0.4.:.$.d H.9.4 O.C ",
"a i d 3 t B X.G.G.9.f.4.*.K t B g G.}.d.C.9.#.t O.B d H a H a P n V *.Y %.m <.l.h.6.(.].'.%X(.(.D S n K $.K V %.L 9.1 f.O.a *.3 ",
"e e 1 t d B L D.F.4.4.W I a B k p 9.oXf.9.&.O.B V Y H c m x v M N P Y m v ) <.,.G.F.F.F.`.,XoXOXD m m V *.K V H K $.p p d p B + ",
"e t t d a d O.A.F.*.x.s.,.Y B j d *.H.D.&.*.;.1 b t b 8 1 P E x c P H T R R R 4.h.l.y.y.j.'.e.e.D v c V O.K H Y B =.; * * p 3 O ",
"2 2 t B s g @.N.a.%.OXOXs.H p r p p L.H.H.=.p 4 B d B 4 1 x m 6 R +.B p V s.6.`.5.).y.7.2.j.l.D E S c H Y K K K $.O.< G * 2 2 + ",
"* @ : i s C O.B.z.Y O.Y 9 - < % : 3 N.f.A.O.*.f.Y n K 8 c a P a N m y H +.s.4.{.O.h.l.c.k.h.'.I P m c B Y K K H J =.: p d B g + ",
"3 * ; 2 t B G G.3.H 9.`.s.a *   o : N.D.*.d.9.@ b a 6 c m 6 h.M ) <.m Y c m R s.|.s.h.).).<.R S S x b B O.X.Y K B 9.2 d d w K s ",
"d p t 8 y d f C.s.n f.`.a.a O + + . p :.f.*.B H n a R c - x , l F 0 x b 0 D m 5.N u.[ t.u.7.) v m a b d $.X.O.K X.f.: d e e X.u ",
"n H H H n H I s.h.T g.H.4.b $ .   O i C.O.; B ; 8 n T x > m - S ) - b n c R 9 h.M R.] *Xu.F M v c x a f #.O.L K B 9.@ i B w p ..",
"H W P R Y W s.k.R ,.x.x.T 8 ; o + + & f.K J =.#.K #.p y - 1 > 7 l 8 b y y P q a Y m F y.U 5.n f q a p n #.#.J K L 9.2 2 g J J s ",
"R W %.W R R W ,.%.,.1.%.T I T T L K G Y *.#.J p B B B a n x I c U <.R m R m 6.+.h.6.e.h.h.e.m x a 5 5 f K O.O.O.G :.: w g h &.w ",
"%.%.-.1.1.1.4.5.e.e.e.4.4.-.%.%.Y $.Y =.f.&.g p : e 3 t 8 c S m M m H x y P n %.R P 5.P b.P c n a c d V K *.O.K B $.3 w e @.d J ",
"4.1.4.e.s.s.s.s.e.s.s.s.5.4.4.6.*.*.O.*.a.L i s & w @ t $ m 9 x x H V 4 b V b b R 6.6.c Y %.Y I S c S K #.X.X.X.d X.3 w s g g C ",
"s.s.s.k.x.x.x.x.k.k.x.x.s.s.h.k.f.a.%.*.4.L h B g : @ @ 8 n a 6 6 b T V 0.a n m K c %.R R c n c n H I %.H $.O.B B $.3 g h : B : ",
"v.x.x.v.v.v.v.F.F.F.x.x.h.k.k.c.f.0.*.4.*.$.#.K B p a t 7 y 9 c 8 b Y n K V b V T H k.c.k.S H I x.%X<X4XL *.O.O.G L ; w s u ..s ",
"x.x.x.v.v.v.v.F.b.x.s.s.h.k.k.k.s.5.4.3.+.%.*.H d 1 t 7 x 7 a x x m a b n H H c 6.(.y.<.U y.1.5.`.s.0.x.$.=.&.J B O.e 2 C s u w ",
"x.x.x.x.v.x.x.x.g.s.s.e.s.s.h.h.s.s.5.,.%.,.3.T +.T P P c x x x x 7 x 5.%.x Y R <.j.<.( _ y.1.e.C.#.B 4 K #.*.a J *.w o u : t B ",
"x.x.x.F.F.x.g.s.4.s.s.5.,.%.,.6.%.6.6.6.6.,.%.R H P P P U D ^ E m 7 m P 9 m P R P ) 2.l.y.2.1.k.q.K ; ; n H a i B O.p e : w : h ",
"D.D.D.D.F.C.x.x.x.g.s.s.s.k.s.5.,.,.%.%.,.,.W R W Y R I E E ) _ ) / F E F E U _ _ r.y.2.8.5.k.e.r.Z * # p O.V K J ;.e & L e t B ",
"L.H.D.D.F.C.x.x.F.F.F.x.x.x.x.x.s.4.,.%.,.1.,.R R Y R R U U ( ) ` ` 2.7.7.2.` 2.` 7.7.y.l.y.l.j.r.B.g # O.w.H *.O.=.: + p w p 3 ",
"{.K.H.H.H.H.G.H.C.G.H.C.g.g.x.x.x.x.s.4.5.5.,.R R W W 1.W _ _ 2.` _ _ _ ` ` 7.t.u.u.y.l.R.y.i.i.i.Z.X.# X.*.L X.G :.d t @ . g h ",
"L.I.G.K.L.L.H.H.G.G.D.C.C.C.g.f.s.s.f.s.s.x.z.s.5.6.,.,.U U U R ) ) ` ` ` 7.r.t.t.i.R.R.W.W.~.~.XXZ.@.< J X.&.X.&.=.s f 2 + h g ",
"+XP.K.L.P.L.K.H.L.H.G.D.G.D.D.B.C.C.f.0.4.s.s.4.6.,.,.%.W ,.e.y.2.r.y.r.t.i.i.i.i./.!.~.!.^.^.XXXX|.X.< @.@.O.*.O.=.J g w + w w ",
";X}.P.L.P.K.K.L.K.K.G.A.B.B.C.D.f.a.9.9.a.f.f.9.0.4.0.-.,.%.5.6.y.y.y.y.i.l.W.W.W.W.[.[.XX^.^.XXXX-X..; O.@.G K K :.J t t : 2 + ",
";XP.P.P.P.I.I.K.G.G.G.G.B.B.C.C.B.g.f.f.f.a.9.4.0.9.a.s.0.s.h.h.e.e.y.l.W.W.l.W.R.l.!.!.[.[.XXXXXX|.o.< K K H V B :.t 2 w w t : ",
";X;X-X-X+XP.I.L.K.K.K.K.H.G.F.F.B.C.C.B.a.=.9.a.9.a.a.f.4.a.s.s.h.5.2.e.y.y.j.Q.W.W.!.l.~.[.[.^.XXS.o.< K B K K J =.+ & 2 e g t "
};
